<svg id="Layer_1" enable-background="new 0 0 128 128" height="512" viewBox="0 0 128 128" width="512" xmlns="http://www.w3.org/2000/svg"><path d="m106.204 39.54h-17.703c-.07-.145-.127-.286-.204-.433-1.844-3.511-.763-6.635-.059-8.044 1.009.498 2.113.752 3.234.752.556 0 1.116-.063 1.67-.188.121-.015.243-.042.364-.072 11.487-2.907 10.766-15.721 9.925-21.082l-.033-.227c-.315-1.957-.681-3.234-.696-3.288-.125-.435-.541-.749-.979-.723-.451.008-.842.317-.952.756-.729 2.898-5.21 4.272-5.237 4.28-9.749 2.703-12.686 9.593-11.289 14.851.398 1.497 1.23 2.804 2.34 3.794-.058.11-.119.229-.182.359-1.429-2.625-4.891-4.484-10.022-3.048-.623.162-2.594.431-3.477-.438-.322-.317-.816-.379-1.206-.151-.391.228-.579.688-.461 1.125.073.271 1.853 6.683 6.303 9.146 1.146.635 2.361.953 3.633.953.811 0 1.645-.13 2.497-.389.655-.199 1.233-.511 1.72-.908.137.946.423 1.943.904 2.974h-17.432c-1.458 0-2.644 1.187-2.644 2.645v14.387h-1.751c-.311-1.96-1.999-3.468-4.045-3.468h-11.118c-.12-.853-.398-1.795-.932-2.813-1.175-2.238-.619-4.248-.149-5.297.692.297 1.432.462 2.199.462.498 0 1.007-.063 1.516-.193v.001c5.967-1.515 8.646-7.161 7.351-15.495-.236-1.512-.519-2.506-.531-2.548-.124-.435-.5-.723-.977-.725-.451.007-.843.316-.954.754-.405 1.602-2.729 2.622-3.57 2.875-7.202 1.995-9.361 7.113-8.32 11.026.094.35.22.687.371 1.009-1.408-.889-3.408-1.234-5.826-.556-.491.13-1.737.245-2.233-.244-.322-.317-.816-.379-1.206-.151-.391.228-.579.688-.461 1.125.054.2 1.365 4.922 4.669 6.751.868.48 1.787.722 2.747.722.61 0 1.237-.098 1.879-.292.349-.106.659-.266.948-.447.141.689.387 1.411.776 2.153.358.681.563 1.31.673 1.883h-12.456c-2.047 0-3.734 1.507-4.045 3.468h-5.325c-1.266 0-2.296 1.03-2.296 2.296v64.603c0 1.266 1.03 2.296 2.296 2.296h43.414.84 36.503c1.458 0 2.644-1.187 2.644-2.645v-80.937c-.001-1.458-1.186-2.644-2.645-2.644z" fill="#e6e7e8"/><path d="m89.26 26.591c-3.803.965-7.133-1.287-8.05-4.732-1.191-4.471 1.177-11.02 10.594-13.627 0 0 5.052-1.497 5.942-4.994-.001.001 5.661 19.762-8.486 23.353z" fill="#fff"/><path d="m89.261 26.585c-.08.02-.16.04-.24.05-2.34-.54-4.16-2.36-4.81-4.78-1.19-4.47 1.18-11.02 10.59-13.62 0 0 1.92-.57 3.61-1.83l.03.21c.91 5.8 1.29 17.32-9.18 19.97z" fill="#d4fbff"/><path d="m79.379 32.517c2.17-.659 3.144-2.768 2.568-4.747-.747-2.568-3.876-5.1-9.313-3.575 0 0-2.947.77-4.432-.694 0 0 3.106 11.468 11.177 9.016z" fill="#d4fbff"/><path d="m102.204 36.54h-37.342c-.908 0-1.644.736-1.644 1.644v15.387h2.483c.716 0 1.296.58 1.296 1.296v64.602c0 .716-.58 1.296-1.296 1.296h36.503c.908 0 1.644-.736 1.644-1.644v-80.937c0-.908-.736-1.644-1.644-1.644z" fill="#0089ef"/><g fill="#d4fbff"><path d="m79.955 41.182h-10.443c-.692 0-1.253.561-1.253 1.253v7.164c0 .692.561 1.253 1.253 1.253h10.444c.692 0 1.253-.561 1.253-1.253v-7.164c-.001-.692-.562-1.253-1.254-1.253z"/><path d="m97.555 41.182h-10.444c-.692 0-1.253.561-1.253 1.253v7.164c0 .692.561 1.253 1.253 1.253h10.444c.692 0 1.253-.561 1.253-1.253v-7.164c0-.692-.561-1.253-1.253-1.253z"/><path d="m79.955 55.729h-10.443c-.692 0-1.253.561-1.253 1.253v7.164c0 .692.561 1.253 1.253 1.253h10.444c.692 0 1.253-.561 1.253-1.253v-7.164c-.001-.692-.562-1.253-1.254-1.253z"/><path d="m97.555 55.729h-10.444c-.692 0-1.253.561-1.253 1.253v7.164c0 .692.561 1.253 1.253 1.253h10.444c.692 0 1.253-.561 1.253-1.253v-7.164c0-.692-.561-1.253-1.253-1.253z"/><path d="m79.955 70.392h-10.443c-.692 0-1.253.561-1.253 1.253v7.164c0 .692.561 1.253 1.253 1.253h10.444c.692 0 1.253-.561 1.253-1.253v-7.164c-.001-.692-.562-1.253-1.254-1.253z"/><path d="m97.555 70.392h-10.444c-.692 0-1.253.561-1.253 1.253v7.164c0 .692.561 1.253 1.253 1.253h10.444c.692 0 1.253-.561 1.253-1.253v-7.164c0-.692-.561-1.253-1.253-1.253z"/><path d="m79.955 85.428h-10.443c-.692 0-1.253.561-1.253 1.253v7.164c0 .692.561 1.253 1.253 1.253h10.444c.692 0 1.253-.561 1.253-1.253v-7.164c-.001-.692-.562-1.253-1.254-1.253z"/><path d="m97.555 85.428h-10.444c-.692 0-1.253.561-1.253 1.253v7.164c0 .692.561 1.253 1.253 1.253h10.444c.692 0 1.253-.561 1.253-1.253v-7.164c0-.692-.561-1.253-1.253-1.253z"/><path d="m47.694 40.295c-2.736.694-5.131-.926-5.791-3.404-.856-3.216.846-7.927 7.621-9.802 0 0 3.634-1.077 4.274-3.592 0 .001 4.072 14.215-6.104 16.798z"/><path d="m40.586 44.558c1.561-.474 2.261-1.991 1.847-3.414-.538-1.847-2.788-3.669-6.699-2.571 0 0-2.12.554-3.188-.5.001 0 2.234 8.248 8.04 6.485z"/></g><path d="m59.496 53.571c.014-.119.036-.235.036-.357 0-1.718-1.393-3.11-3.111-3.11h-25.603c-1.718 0-3.111 1.393-3.111 3.11 0 .123.022.239.036.357z" fill="#0089ef"/><path d="m65.701 120.765h-44.253c-.716 0-1.296-.58-1.296-1.296v-64.602c0-.716.58-1.296 1.296-1.296h44.253c.716 0 1.296.58 1.296 1.296v64.602c0 .716-.58 1.296-1.296 1.296z" fill="#6dc9f7"/><path d="m49.116 102.703h-11.082c-.654 0-1.184.53-1.184 1.184v16.878h13.45v-16.878c0-.654-.531-1.184-1.184-1.184z" fill="#d4fbff"/><path d="m61.702 59.542h-36.254c-.533 0-.965.432-.965.965v2.789c0 .533.432.965.965.965h36.254c.533 0 .965-.432.965-.965v-2.789c0-.533-.432-.965-.965-.965z" fill="#d4fbff"/><path d="m61.702 69.41h-36.254c-.533 0-.965.432-.965.965v2.789c0 .533.432.966.965.966h36.254c.533 0 .965-.432.965-.966v-2.789c0-.533-.432-.965-.965-.965z" fill="#d4fbff"/><path d="m61.702 79.25h-36.254c-.533 0-.965.432-.965.965v2.789c0 .533.432.965.965.965h36.254c.533 0 .965-.432.965-.965v-2.789c0-.533-.432-.965-.965-.965z" fill="#d4fbff"/><path d="m61.702 89.09h-36.254c-.533 0-.965.432-.965.965v2.789c0 .533.432.965.965.965h36.254c.533 0 .965-.432.965-.965v-2.789c0-.533-.432-.965-.965-.965z" fill="#d4fbff"/><path d="m102.205 35.54h-17.7c-.068-.144-.131-.286-.208-.433-1.844-3.512-.762-6.636-.058-8.045 1.01.498 2.114.753 3.236.753.556 0 1.115-.063 1.668-.188.112-.013.223-.038.335-.065l-.216-.977-.26-.966c-.034.009-.067.019-.198.04-1.3.29-2.58.142-3.69-.406.81-2.033 3.343-7.59 7.4-9.305.508-.215.747-.802.531-1.311-.215-.509-.801-.747-1.311-.531-4.446 1.88-7.18 7.296-8.267 9.879-.595-.667-1.049-1.474-1.289-2.378-1.151-4.336 1.452-10.068 9.908-12.414.173-.052 3.294-1.001 5.243-3.192.031.175.063.357.093.546l.032.223c.942 6.002 1.098 16.433-8.438 18.846l.246.97.237.972c.003-.001.006-.002.009-.002 11.487-2.908 10.766-15.722 9.924-21.083l-.033-.227c-.315-1.957-.681-3.234-.696-3.288-.125-.434-.506-.693-.978-.723-.452.008-.843.317-.953.756-.729 2.898-5.21 4.272-5.237 4.28-9.749 2.704-12.686 9.594-11.289 14.851.398 1.497 1.229 2.805 2.34 3.794-.058.11-.119.229-.182.36-1.429-2.626-4.894-4.489-10.02-3.047-.669.17-2.601.427-3.479-.438-.323-.317-.816-.38-1.207-.151-.39.228-.579.688-.461 1.125.074.271 1.853 6.683 6.303 9.146 1.147.635 2.362.953 3.633.953.811 0 1.644-.13 2.497-.389.656-.199 1.234-.511 1.721-.908.138.946.423 1.943.904 2.974h-17.433c-1.458 0-2.644 1.186-2.644 2.644v14.385h-1.752c-.311-1.959-1.999-3.467-4.045-3.467h-11.122c-.118-.853-.391-1.793-.926-2.813-1.175-2.238-.619-4.248-.149-5.297.692.297 1.433.462 2.2.462.499 0 1.006-.063 1.515-.192 5.967-1.515 8.646-7.162 7.35-15.495-.236-1.512-.519-2.507-.531-2.549-.125-.435-.555-.701-.977-.725-.452.007-.843.316-.954.754-.406 1.603-2.729 2.622-3.571 2.875-7.201 1.996-9.361 7.114-8.32 11.025.094.352.221.689.373 1.012-1.408-.889-3.408-1.234-5.824-.558-.516.132-1.743.243-2.236-.243-.321-.317-.817-.38-1.206-.151-.391.228-.58.688-.461 1.125.054.2 1.365 4.922 4.669 6.751.868.48 1.787.722 2.748.722.611 0 1.238-.098 1.879-.292.349-.106.658-.266.948-.447.141.689.387 1.412.776 2.153.359.684.556 1.309.664 1.883h-12.448c-2.047 0-3.734 1.507-4.045 3.467h-5.324c-1.266 0-2.296 1.03-2.296 2.297v64.602c0 1.266 1.03 2.296 2.296 2.296h43.414.839 36.503c1.458 0 2.644-1.186 2.644-2.644v-80.937c-.001-1.458-1.187-2.644-2.644-2.644zm-23.117-3.98c-1.674.509-3.17.378-4.575-.397-2.275-1.257-3.765-3.933-4.58-5.826 1.41.203 2.737-.116 2.971-.178 4.601-1.292 7.415.594 8.083 2.891.056.192.087.392.104.592-1.347-.681-3.589-1.619-5.489-1.456-.55.047-.958.53-.912 1.081.047.551.524.966 1.082.911 1.477-.12 3.543.783 4.758 1.428-.329.417-.802.759-1.442.954zm-29.281-3.513c.118-.034 2.057-.622 3.506-1.975v.004c.657 4.226.77 11.565-5.866 13.248-.83.211-1.648.161-2.375-.132.659-1.585 2.398-5.165 5.071-6.295.509-.215.747-.802.531-1.311-.215-.509-.801-.747-1.311-.531-3.062 1.296-5.013 4.827-5.911 6.836-.261-.374-.461-.798-.584-1.257-.794-2.988 1.032-6.95 6.939-8.587zm-9.511 15.554c-1.125.344-2.131.258-3.072-.263-1.405-.775-2.383-2.353-2.98-3.624.875.037 1.61-.139 1.762-.179 3.011-.847 4.873.28 5.402 1.728-1-.454-2.352-.924-3.56-.82-.55.047-.958.531-.912 1.081.047.55.532.971 1.082.911.874-.065 2.076.405 2.928.823-.178.144-.391.264-.65.343zm-9.478 7.503h25.603c.939 0 1.738.617 2.01 1.467h-29.623c.272-.85 1.071-1.467 2.01-1.467zm72.03 68.017c0 .354-.289.644-.644.644h-34.237c.013-.098.03-.195.03-.296v-10.586c0-.553-.448-1-1-1s-1 .447-1 1v10.586c0 .163-.133.296-.296.296h-44.253c-.164 0-.296-.133-.296-.296v-64.602c0-.164.133-.297.296-.297h44.253c.163 0 .296.133.296.297v40.231c0 .553.448 1 1 1s1-.447 1-1v-40.231c0-1.267-1.03-2.297-2.296-2.297h-1.483v-14.386c0-.354.289-.644.644-.644h37.343c.355 0 .644.289.644.644v80.937z" fill="#3a2c60"/><path d="m66.997 98.294c-.552 0-1 .447-1 1v5.164c0 .553.448 1 1 1s1-.447 1-1v-5.164c0-.553-.448-1-1-1z" fill="#3a2c60"/></svg>